<?xml version="1.0" encoding="UTF-8"?>
<svg id="Ebene_2" data-name="Ebene 2" xmlns="http://www.w3.org/2000/svg" viewBox="0 0 319.61 319.61">
  <defs>
    <style>
      .cls-1 {
        fill: #fff;
        stroke-width: 0px;
      }
    </style>
  </defs>
  <g id="Ebene_1-2" data-name="Ebene 1">
    <g>
      <path class="cls-1" d="m162.12,54.66c-58.07,0-105.15,47.08-105.15,105.15s47.08,105.15,105.15,105.15,105.15-47.08,105.15-105.15-47.08-105.15-105.15-105.15Zm0,163.12c-32.02,0-57.97-25.95-57.97-57.97s25.95-57.97,57.97-57.97,57.97,25.95,57.97,57.97-25.95,57.97-57.97,57.97Z"/>
      <g>
        <path class="cls-1" d="m11.86,122.95h51.41v53.9c0,11.69-9.49,21.18-21.18,21.18h-9.05c-11.69,0-21.18-9.49-21.18-21.18v-53.9h0Z" transform="translate(197.85 122.02) rotate(89.68)"/>
        <path class="cls-1" d="m47.17,36.32h51.41v53.9c0,11.69-9.49,21.18-21.18,21.18h-9.05c-11.69,0-21.18-9.49-21.18-21.18v-53.9h0Z" transform="translate(176.64 73.96) rotate(134.68)"/>
        <path class="cls-1" d="m133.41.03h51.41v53.9c0,11.69-9.49,21.18-21.18,21.18h-9.05c-11.69,0-21.18-9.49-21.18-21.18V.03h0Z" transform="translate(318.44 74.24) rotate(179.68)"/>
        <path class="cls-1" d="m220.04,35.34h51.41v53.9c0,11.69-9.49,21.18-21.18,21.18h-9.05c-11.69,0-21.18-9.49-21.18-21.18v-53.9h0Z" transform="translate(369.26 297.49) rotate(-135.32)"/>
        <path class="cls-1" d="m256.33,121.57h51.41v53.9c0,11.69-9.49,21.18-21.18,21.18h-9.05c-11.69,0-21.18-9.49-21.18-21.18v-53.9h0Z" transform="translate(124.52 442.05) rotate(-90.32)"/>
        <path class="cls-1" d="m221.02,208.21h51.41v53.9c0,11.69-9.49,21.18-21.18,21.18h-9.05c-11.69,0-21.18-9.49-21.18-21.18v-53.9h0Z" transform="translate(-101.5 248.4) rotate(-45.32)"/>
        <path class="cls-1" d="m134.79,244.5h51.41v53.9c0,11.69-9.49,21.18-21.18,21.18h-9.05c-11.69,0-21.18-9.49-21.18-21.18v-53.9h0Z" transform="translate(-1.59 .91) rotate(-.32)"/>
        <path class="cls-1" d="m48.15,209.18h51.41v53.9c0,11.69-9.49,21.18-21.18,21.18h-9.05c-11.69,0-21.18-9.49-21.18-21.18v-53.9h0Z" transform="translate(194.81 19.35) rotate(44.68)"/>
      </g>
    </g>
  </g>
</svg>