<?xml version="1.0" encoding="UTF-8"?>
<svg id="Ebene_2" data-name="Ebene 2" xmlns="http://www.w3.org/2000/svg" viewBox="0 0 108 108">
  <defs>
    <style>
      .cls-1 {
        fill: #2e4442;
      }

      .cls-1, .cls-2, .cls-3, .cls-4, .cls-5, .cls-6, .cls-7, .cls-8, .cls-9, .cls-10, .cls-11, .cls-12, .cls-13, .cls-14, .cls-15, .cls-16, .cls-17, .cls-18, .cls-19, .cls-20, .cls-21, .cls-22, .cls-23 {
        stroke-width: 0px;
      }

      .cls-2 {
        fill: #2b461d;
      }

      .cls-3 {
        fill: #22412a;
      }

      .cls-4 {
        fill: #c5deb3;
      }

      .cls-5 {
        fill: #758e85;
      }

      .cls-6 {
        fill: none;
      }

      .cls-7 {
        fill: #17332a;
      }

      .cls-8 {
        fill: #809e9a;
      }

      .cls-9 {
        fill: #b6c2a7;
      }

      .cls-10 {
        fill: #b9d0bb;
      }

      .cls-11 {
        fill: #355354;
      }

      .cls-12 {
        fill: #315333;
      }

      .cls-13 {
        fill: #132521;
      }

      .cls-14 {
        fill: #acc197;
      }

      .cls-15 {
        fill: #315545;
      }

      .cls-16 {
        fill: #acb9ad;
      }

      .cls-17 {
        fill: #1d453a;
      }

      .cls-18 {
        fill: #193535;
      }

      .cls-19 {
        fill: #799478;
      }

      .cls-20 {
        fill: #9cb7b8;
      }

      .cls-21 {
        fill: #88ba6c;
      }

      .cls-22 {
        fill: #fafbfa;
      }

      .cls-23 {
        fill: #63835d;
      }
    </style>
  </defs>
  <g id="Ebene_2-2" data-name="Ebene 2">
    <rect class="cls-6" width="108" height="108"/>
    <g>
      <path class="cls-22" d="m101.49,54.59c.07,3.05-.77,8.61-1.39,11.7-2.34,11.59-10.24,19.55-13.56,30.71-14.35-3.34-30.48,1.29-44.03-6.03-2.31-1.24-4-3.05-5.91-4.4-.13-.09.1-.6-2.32-2.09-14.16-8.31-31.95-27.87-26.88-45.54,2.61-9.09,13.77-18.71,19.12-16.8,2.67.95,1.44,4.81,3.48,6.26.5-.2-3.16-5.92,3.59-8.81,2.48-1.06,24.77-5.81,27.69-6.03,5.4-.39,9.19.51,13.9,3.01,1.55.82,9.57,6.46,10.89,7.65,6.48,5.86,15.21,21.61,15.41,30.36Z"/>
      <g>
        <path class="cls-12" d="m70.9,71.97c.15.07.67.43.7.46,4.56,6.25,8.4,13,12.05,19.81-1.95-.15-3.95-.73-5.91-.81-1.95-.08-6.45.04-6.6.7-1.34,0-2.2.41-3.13,0-3.29-1.45-2.6-10.43-2.9-13.44,1.89-1.22.79-10.58-.93-13.32-4.26-6.82-9.03,2.58-9.27,4.63-.28,2.41,1.31,9.47,2.32,11.82.51,1.18,4.59,7.78,6.03,7.53,1.98,2.66,5.9,4.63,1.74,3.01-6.61-.05-17.95-1.56-23.06-5.79-2.71-5.24.36-15,3.24-19.7.73-1.19,2.11-3.48,3.71-2.78,1.15.5.66,2,1.85,2.09-.01.15,0,.31,0,.46,0,.02-.4-.09-.46.12l.46,1.97c-.71,1.83-2.29,6.55-1.85,8.11-.09.56-.4,1.25-.46,1.85-.13,1.23-.29,10.24,0,10.78.07.13,2.7.89,2.78.7-1.66-6.21-.06-12.68.93-18.89l.46-2.55,7.42-10.66c3.96,4.41,6.85,9.57,10.89,13.9Z"/>
        <path class="cls-12" d="m88.05,52.04c-.62-.43-.84-1-2.2-1.16.1-1.67-4.46-1.72-6.03-2.55-5.52-.14-6.14,1.66-6.49,1.62-.79-.08-2.28-2.97-1.51-3.94,5.86-1.08,11.03-2.16,17.03-1.16,1.01.17,3.29,1.15,3.48,1.16,1.18.08.11-.4.12-.46,0-.45.31-.6.23-1.04-3.01-2.78-7.59-1.45-11.59-1.74-2.96-.22-5.82-1.67-8.81-.7-.97-.4-.69-.6-.7-1.62,1.07-.21,6.04-1.7,6.49-2.32,4.16-.75,11.01-2.45,14.72.23,3.88,2.81,5.73,19.02,5.21,23.98-2.24-4.64-5.84-7.46-9.96-10.31Z"/>
        <path class="cls-18" d="m41.23,38.14c-.85-.69-1.7-1.4-2.55-2.09,3.15-10.67,9.64-15.34,19.81-18.77-10.85,2.8-16.52,7.98-20.28,18.54-.3-.24-.63-.46-.93-.7-.2-.16-.49-.3-.7-.46.1-4.25,1.89-8.69,4.63-11.93,1.63-1.94,5.74-4.45,1.51-1.97-2.12,1.67-4.88,6.16-5.68,8.69-.76,2.42-.46,4.96-1.16,4.75-.76-.6-2.58-1.56-3.01-2.09-2.7-3.35,1.04-9.15,4.29-10.89,4.5-2.42,19.47-4.63,25.03-4.4-10.95,4.9-15.74,10.76-20.97,21.32Z"/>
        <path class="cls-12" d="m35.21,58.07c.62.18,1.22.33,1.85.46-1.41,1.99-5.93,10.31-6.26,12.4-.43,2.74,1.82-3.87,2.55-5.33.9-1.82,2.14-3.52,3.24-5.21,1.73,1.48-1.35,6.77.35,6.26.47-.14.32-2.73,1.27-2.32-2.55,6.37-2.54,14.06-.81,20.62-3.73-2.21-11.39-9.09-13.32-12.51.7-.07.9-3.01,1.39-4.29.97-2.56,3.95-6.56,6.14-8.23,1.22-.93,2.51-.56,1.97-1.62.12-.02.53-.38,1.62-.23Z"/>
        <path class="cls-12" d="m34.05,44.86c-1.77.99-8.45,5.83-9.73,7.3-.65.74-4.43,6.12-2.32,4.98.65-.35,2.84-3.22,6.49-5.79.83.33.57.38,0,1.16-2.77,3.77-7.89,6.8-7.07,17.61-3.06-3.67-9.47-10.77-9.62-15.53,1.73.49.15-3.03,4.98-5.33,5.92-2.82,8.67.12,17.03-4.87l.23.46Z"/>
        <path class="cls-12" d="m82.48,57.6c12.53,1.54,12.98,4.15,12.98,12.4,0,.17.47.06.46.23-.02,1.15-.99,2.42-.93,3.59-1.18,2.87-2.92,5.45-4.06,8.34-.45-.11,1.58-2.99-.12-8.11,2.28.57-.91-3.01-1.39-6.72-3.74-8.47-22.43-11.64-6.95-9.73Z"/>
        <path class="cls-18" d="m32.43,32.34c.45.55.71.78-.23.7-5.29-.96-16.31-.68-20.62,2.32-.02,0,.09.4-.46,0,3.99-9.61,12.03-12.64,19.7-4.75-4.86-.48-9.99-2.13-14.72-.12,3.32-1.08,14.29-.62,16.34,1.85Z"/>
        <path class="cls-18" d="m43.78,43.47c-8.01,2.85-16.66,6.54-21.78,13.67-2.12,1.13,1.67-4.25,2.32-4.98,1.29-1.47,7.96-6.31,9.73-7.3,2.35-1.31,4.91-2.37,7.53-3.01-.58-2.77-2.54-1.63-2.9-1.62-1.29.02-2.53.27-3.82.23-1.74.9-1.86.63-1.97.7-.23-.03-.37-.48-.46-.7-.87-1.95-2.16.73-2.78-.23-.67-3.93-9.54.13-12.05.93.06-.04.22-.54,1.04-.93,1.03-.56,7.78-2.26,8.81-2.32.35-.02,1.41.71,1.85.7.09,0,.37-.46.46-.46,2.34-.05,8.49,1.01,8.46-.46,1.67,1.43,5.42,4.45,5.56,5.79Z"/>
        <path class="cls-7" d="m32.43,40.46c-2.73-1.2-2.82,2.35-.58,2.09,1.03-.12.97-1.35,1.04-1.39.11-.07.23.21,1.97-.7,1.29.03,2.53-.21,3.82-.23.22,1.31-3.33,3.26-4.87,4.17-8.36,4.99-11.12,2.05-17.03,4.87-4.83,2.3-3.25,5.82-4.98,5.33-.32-10.35,14.45-9,16.8-10.43,1.18-.72,1.25-2.71,1.04-3.94.62.96,1.91-1.72,2.78.23Z"/>
        <path class="cls-12" d="m86.42,28.41c-5.67-1.97-11,.36-16.45,1.39-1.67.31-2.04,1.15-2.78-2.09,2.08-.93,5.29-3.4,7.76-4.17,6.29-1.95,7.59.84,11.47,4.87Z"/>
        <path class="cls-3" d="m65.1,78.69c-.23-2.35-.97-13.65-3.36-14.37-5.38-1.63-5.52,10.62-1.97,18.89.34.79,3.01,5.52,3.48,6.14-1.44.25-5.52-6.35-6.03-7.53-1.01-2.35-2.59-9.41-2.32-11.82.24-2.05,5.01-11.46,9.27-4.63,1.71,2.74,2.81,12.11.93,13.32Z"/>
        <path class="cls-13" d="m53.05,51.35s.2.34.23.46c-1.58-.65-6.07,4.07-7.18,5.33-2.13-1.27-5.2,2.34-6.26,3.94-2.43-.59.43-3.48-1.16-3.36,1.02-1.04,2.48-.65,1.62-2.2.4-.42.74-.76,1.16-1.16,3.04-.04,1.56-.46,2.43-1.39.62-.13,4.39-1.64,2.43-2.32,1.14-.68,2.24-1.34,3.48-1.85.96.88,2.32,1.62,3.24,2.55Z"/>
        <path class="cls-3" d="m71.13,92.13c.15-.66,4.66-.77,6.6-.7,1.95.08,3.96.67,5.91.81-3.65-6.81-7.49-13.57-12.05-19.81-.03-.2.06-.21.23-.23,4.39,5.88,9.12,11.45,12.4,18.08.82.25,1.73-4.32,1.97-4.98,1-2.75,5.55-6.48-4.17-12.4l1.16-.93c14.04,9.51.86,11.21,1.85,21.67-4.11-2.65-9.29-1.54-13.9-1.51Z"/>
        <path class="cls-3" d="m32.66,58.3c.3,0,.64.04.93,0,.54,1.06-.75.69-1.97,1.62-2.19,1.67-5.17,5.67-6.14,8.23-.49,1.28-.69,4.21-1.39,4.29-3.5-6.2,1.47-11.01,5.79-14.83,1.95.29.45.74,2.78.7Z"/>
        <path class="cls-3" d="m45.17,66.87c-2.89,4.7-5.95,14.45-3.24,19.7-6.82-5.66-2.03-13.87,1.16-19.93.98-.97.96.11,2.09.23Z"/>
        <path class="cls-3" d="m88.74,67.57s.33.04.7-.23c.48,3.71,3.67,7.29,1.39,6.72-.95-2.86-3.14-4.64-5.33-6.49-1.09-.92-.47-1.17-1.04-1.62-1.94.51-11.99-4.57-12.17-5.21-.1-.39.62-.65.7-1.04,5.61,1.89,11.5,3.93,15.64,8.34.67.03.02-.37.12-.46Z"/>
        <path class="cls-12" d="m91.99,34.89c.31.96-2.3-.78-4.52-1.39-2.78-.76-7.04-1.59-9.73-.7-1.93-2.15-7.77,2.11-7.07-.23,5.02-1.55,7-2.45,12.63-2.09.93.06,2.61,1.48,2.66-.23,1.79.23,2.56.96,1.16-1.16,1.76,1.88,3.26,3.79,4.87,5.79Z"/>
        <path class="cls-21" d="m38.22,35.82c.37.3.44.22.46.23.85.69,1.7,1.39,2.55,2.09.01.01.05.09.23.23.38.31.79.61,1.16.93,1.13.97,2.39,2.01,3.48,3.01.07.07.14.15.23.23,1.02.96,1.83,2.21,3.01,3.01.16.21.22.22.23.23.84,1.04,2.13,2.07,2.32,2.32.18.25.49.82.7,1.16.5.83,1.24,1.98.46,2.09-.92-.93-2.29-1.67-3.24-2.55-.35-.33-.44-.21-.46-.23-1.55-1.45-2.93-4.2-5.1-4.87-.02,0,.08-.32-.46-.23-.14-1.34-3.89-4.36-5.56-5.79-.41-.35-.69-.79-1.16-1.16-.19-.96-.85-.64.23-1.39.3.23.63.46.93.7Z"/>
        <path class="cls-3" d="m86.42,28.41c.23.24.46.45.7.7,1.4,2.12.63,1.39-1.16,1.16-7.62-1-10.37-.1-17.38,2.32,1.41-1.9,4.14-.18,1.39-2.78,5.45-1.03,10.78-3.36,16.45-1.39Z"/>
        <path class="cls-2" d="m95,73.83c-.07-1.17.9-2.44.93-3.59,0-.17-.46-.06-.46-.23,0-8.25-.45-10.86-12.98-12.4l.93-.93c10.44,1.6,17.36,3.11,11.59,17.15Z"/>
        <path class="cls-18" d="m91.99,34.89c.08.1,2.1,1.73,1.04,1.62-6-5.5-22.44-3.4-26.53-.7l-.7-1.62c1.62-.62,3.21-1.11,4.87-1.62-.71,2.35,5.14-1.92,7.07.23,2.7-.9,6.96-.06,9.73.7,2.22.61,4.83,2.35,4.52,1.39Z"/>
        <path class="cls-18" d="m39.84,61.08c-.36.54-1.35,2.57-1.62,3.24-.95-.41-.81,2.17-1.27,2.32-1.69.52,1.38-4.78-.35-6.26.88-1.34,1.74-2.97,2.78-4.17.15-.17.76-.52.93-.7.86,1.55-.6,1.17-1.62,2.2,1.59-.12-1.27,2.77,1.16,3.36Z"/>
        <path class="cls-18" d="m60.01,58.07l-7.42,10.66-1.39.46c1.29-3.39,3.4-7.71,1.62-4.98-.28.42-1.79,3.77-2.09,4.52l-.46-1.97c.06-.2.46-.09.46-.12.84-2.55,1.88-5.44,3.24-7.76,3.52-6,3.26-3.89,6.03-.81Z"/>
        <path class="cls-12" d="m52.13,71.28c-.98,6.2-2.58,12.68-.93,18.89-.09.19-2.71-.57-2.78-.7-.29-.53-.13-9.55,0-10.78,2.05.49,1.94-8.08,3.71-7.42Z"/>
        <path class="cls-9" d="m56.99,53.43c.45.36.85,1.48,2.55,1.85-.5.73-.02.66,0,.7,1.01,1.94,9.26,12.36,11.36,15.99-4.04-4.34-6.93-9.49-10.89-13.9-2.76-3.08-2.51-5.19-6.03.81-1.36,2.32-2.4,5.22-3.24,7.76,0-.15-.01-.31,0-.46.03-.42.32-1.35.46-1.85,1.76-6.03,4.81-8.85,5.33-9.85.02-.03-.29-.18-.23-.35.17-.48.52-.11.23-.93.06.05.4.18.46.23Z"/>
        <path class="cls-18" d="m51.2,64.32c-.15.5-.43,1.43-.46,1.85-1.19-.08-.7-1.58-1.85-2.09-1.57-.91,5.31-9.03,4.87-6.37-.03.17-1.53,2.26-1.85,3.01-.48,1.13-1.43,4.05-.7,3.59Z"/>
        <path class="cls-12" d="m52.13,71.28c-1.77-.67-1.66,7.91-3.71,7.42.06-.6.37-1.29.46-1.85.47-2.96,1.28-4.92,2.32-7.65l1.39-.46-.46,2.55Z"/>
        <path class="cls-5" d="m51.2,69.19c-1.04,2.72-1.84,4.69-2.32,7.65-.44-1.56,1.14-6.28,1.85-8.11.29-.75,1.81-4.1,2.09-4.52,1.78-2.73-.33,1.59-1.62,4.98Z"/>
        <g>
          <path class="cls-18" d="m67.19,27.71c.74,3.24,1.11,2.4,2.78,2.09,2.75,2.61.02.88-1.39,2.78-1.94.67-2.96,1.28-3.24,1.39-4.88,1.93-9.54,4.23-14.37,6.26.01-.19.03-.47-.12-.46-1.17.06-5.64,3.85-6.03.7q5.1-2.78,10.2-5.56c1.93-.16,10.37-3.79,11.01-4.98,1.6-3.03-.36-.32-3.13,1.27-1.06.61-2.55,1.06-3.71,1.62-.05.03-1.11-.03-1.16,0-1.57.78-12.44,7.32-13.21,7.42-.49.06-1.04-.18-1.39-.46-1.97-1.58,5.71-7.8,6.95-9.27-2.98,1.99-6.64,5.36-7.76,8.81-.37-.32-.78-.62-1.16-.93,3.33-8.22,14.59-21.7,23.98-21.32,2.52.1,10.37,2.06,12.86,3.82-7.34-1.63-26.2,7.79-20.28,9.39,1.93.52,7.17-1.66,9.15-2.55Z"/>
          <path class="cls-1" d="m50.97,40.22c-1.62.68-3.22,1.45-4.87,2.09-1.08-1-2.34-2.05-3.48-3.01,1.12-3.45,4.79-6.82,7.76-8.81-1.24,1.47-8.92,7.69-6.95,9.27.35.28.9.52,1.39.46.76-.1,11.64-6.64,13.21-7.42.05-.03,1.11.03,1.16,0,1.15-.56,2.65-1.01,3.71-1.62,2.77-1.59,4.73-4.3,3.13-1.27-.63,1.2-9.08,4.82-11.01,4.98q-5.1,2.78-10.2,5.56c.39,3.16,4.86-.64,6.03-.7.15,0,.13.28.12.46Z"/>
          <path class="cls-22" d="m54.1,26.32c5.58-.75.28,5.6-2.78,4.63-2.4-.76.25-4.29,2.78-4.63Z"/>
        </g>
        <path class="cls-23" d="m85.96,30.26c-.06,1.72-1.73.29-2.66.23-5.63-.36-7.61.53-12.63,2.09-1.66.51-3.24,1-4.87,1.62-.07.03-.16-.03-.23,0l-.23-.23c.28-.11,1.3-.72,3.24-1.39,7.01-2.42,9.76-3.32,17.38-2.32Z"/>
        <path class="cls-10" d="m65.34,33.97l.23.23c-6.49,2.5-12.53,6.36-19.23,8.34-.09-.08-.16-.17-.23-.23,1.64-.64,3.24-1.4,4.87-2.09,4.83-2.03,9.49-4.33,14.37-6.26Z"/>
        <path class="cls-18" d="m81.09,42.77c.25,1.38-.76.58-.7,1.39-3.71.25-7.9,1.13-11.59,1.85-5.18,1.02-10.19,3.1-15.53,3.24h-.7c-.2-.34-.51-.91-.7-1.16,3.27-1.73,6.21-3.74,9.27-5.79,3.64,1.33,7.43.44,11.12-.23,2.99-.97,5.85.48,8.81.7Z"/>
        <path class="cls-7" d="m71.59,40.46c0,1.02-.27,1.22.7,1.62-3.7.67-7.48,1.56-11.12.23.17-.11,1.04-1.33,3.36-2.32,3.27.87,3.78,1.11,7.07.46Z"/>
        <path class="cls-2" d="m92.45,45.55c-3.87-1.67-7.93-1.67-12.05-1.39-.07-.81.94,0,.7-1.39,3.99.29,8.57-1.04,11.59,1.74.08.44-.22.59-.23,1.04Z"/>
        <path class="cls-23" d="m92.45,45.55c0,.06,1.07.55-.12.46-.18-.01-2.47-.99-3.48-1.16-6.01-1-11.18.08-17.03,1.16-.85.16-1.71.3-2.55.46l-.46-.46c3.69-.73,7.87-1.6,11.59-1.85,4.12-.28,8.18-.28,12.05,1.39Z"/>
        <path class="cls-20" d="m38.69,36.05s-.09.06-.46-.23c3.76-10.56,9.43-15.74,20.28-18.54-10.17,3.43-16.66,8.1-19.81,18.77Z"/>
        <path class="cls-8" d="m36.6,34.66c-.21-.16-.44-.26-.7-.46.7.21.4-2.33,1.16-4.75.8-2.53,3.56-7.02,5.68-8.69,4.23-2.48.13.03-1.51,1.97-2.74,3.25-4.54,7.69-4.63,11.93Z"/>
        <path class="cls-19" d="m39.38,56.21c-1.05,1.21-1.9,2.83-2.78,4.17-1.11,1.69-2.34,3.4-3.24,5.21-.72,1.46-2.98,8.07-2.55,5.33.33-2.08,4.84-10.41,6.26-12.4.59-.83,1.43-1.55,2.09-2.32h.23Z"/>
        <path class="cls-10" d="m43.78,43.47c.54-.09.44.22.46.23-5.37,2.14-11,4.29-15.76,7.65-3.65,2.57-5.84,5.44-6.49,5.79,5.12-7.13,13.77-10.82,21.78-13.67Z"/>
        <path class="cls-17" d="m34.05,44.86l-.23-.46c1.53-.91,5.09-2.86,4.87-4.17.36,0,2.32-1.15,2.9,1.62-2.62.64-5.18,1.7-7.53,3.01Z"/>
        <g>
          <path class="cls-7" d="m32.2,33.27c1.92.53,3.37,2.07,4.87,3.24.46.37.75.81,1.16,1.16.03,1.47-6.12.42-8.46.46-.09,0-.37.46-.46.46-.44.01-1.5-.71-1.85-.7-1.02.05-7.77,1.75-8.81,2.32-.82.38-.98.89-1.04.93-5.12,3.32-7.74,6.52-7.3,12.98-1.49-6.09-1.61-12.93.81-18.77.56.4.44,0,.46,0,5.48-1.82,15.07-3.61,20.62-2.09Z"/>
          <path class="cls-4" d="m35.9,34.2c.26.21.49.3.7.46.2.16.49.3.7.46-1.09.75-.43.43-.23,1.39-1.5-1.18-2.95-2.72-4.87-3.24v-.23c.94.08.68-.15.23-.7l.46-.23c.43.53,2.25,1.48,3.01,2.09Z"/>
          <path class="cls-15" d="m33.24,35.59c1.13-.03,1.65.27,2.32,1.16,4.13.51-3.2-.03-4.4,0-3.12.07-6.25.76-9.39.58,3.65-.73,7.26-1.18,11.24-1.27.18,0,.06-.46.23-.46Z"/>
          <path class="cls-20" d="m32.2,33.04v.23c-5.55-1.53-15.14.26-20.62,2.09,4.32-2.99,15.33-3.28,20.62-2.32Z"/>
        </g>
        <path class="cls-7" d="m56.99,53.43c-.06-.05-.41-.18-.46-.23-.37-.31-3.16-3.26-3.24-3.48,1.32,0,2.65-.24,3.94-.46.71.8,7.63-1.93,7.65-.81-2.37.95.28,3.11-1.04,4.75-.46.53-6.18-.56-6.84.23Z"/>
        <g>
          <path class="cls-18" d="m71.82,46.02c-.77.97.71,3.86,1.51,3.94.35.04.97-1.77,6.49-1.62,1.57.83,6.12.88,6.03,2.55,1.36.16,1.58.73,2.2,1.16-14.21-6.34-19.45,1.64-13.79,3.71,1.5.55,6.66.54,9.15.93l-.93.93c-15.47-1.91,3.22,1.26,6.95,9.73-.36.27-.67.21-.7.23-6.35-6.78-20.26-9.67-29.2-12.28-1.69-.38-2.1-1.49-2.55-1.85.66-.8,6.37.3,6.84-.23,1.33-1.64-1.33-3.8,1.04-4.75-.02-1.12-6.94,1.61-7.65.81,4.07-.69,8.01-2.01,12.05-2.78.84-.16,1.7-.31,2.55-.46Z"/>
          <path class="cls-5" d="m88.74,67.57c-.1.09.55.5-.12.46-4.14-4.41-10.03-6.45-15.64-8.34-4.39-1.48-8.95-2.58-13.44-3.71-.02-.03-.5.03,0-.7,8.94,2.61,22.84,5.5,29.2,12.28Z"/>
          <path class="cls-22" d="m67.54,49.49c2.71-.51,4.07,2.09,2.32,3.01-2.82,1.48-5.64-2.38-2.32-3.01Z"/>
        </g>
        <path class="cls-10" d="m69.27,46.48c-4.04.77-7.98,2.09-12.05,2.78-1.29.22-2.62.46-3.94.46-.03-.08.02-.3,0-.46,5.33-.15,10.35-2.23,15.53-3.24l.46.46Z"/>
        <path class="cls-12" d="m82.02,72.9c9.72,5.92,5.17,9.65,4.17,12.4-.24.66-1.15,5.23-1.97,4.98-3.27-6.62-8.01-12.2-12.4-18.08,3.27-.41,8.06-.35,1.85-2.55v-.23c3.31.46,4.99,2.2,5.68,2.55.52.26,2.14.61,2.66.93Z"/>
        <g>
          <path class="cls-18" d="m72.98,59.69c-.08.39-.8.66-.7,1.04.17.65,10.22,5.73,12.17,5.21.57.45-.05.7,1.04,1.62-4.36-1.43-8.02.5-5.45,2.78.24.22,2.32,1.07,3.13,1.62l-1.16.93c-.53-.32-2.14-.66-2.66-.93-.69-.35-2.36-2.09-5.68-2.55-4.81-.67-5.71.29,0,.23,6.21,2.2,1.41,2.14-1.85,2.55-.17.02-.26.03-.23.23-.02-.03-.54-.39-.7-.46-2.09-3.63-10.34-14.05-11.36-15.99,4.49,1.13,9.05,2.23,13.44,3.71Z"/>
          <path class="cls-22" d="m68,60.85c4.48-.78,5.49,3.72,3.71,4.63-2.83,1.46-2.4-7.39-5.33-2.09-1.05-1.05.52-2.36,1.62-2.55Z"/>
          <path class="cls-22" d="m75.42,65.25c2.09-.81,3.63,1.77,1.85,2.32-1.6.5-3.48-1.69-1.85-2.32Z"/>
          <path class="cls-8" d="m73.68,69.42v.23c-5.71.06-4.81-.9,0-.23Z"/>
        </g>
        <g>
          <path class="cls-18" d="m49.35,48.57c-4.15,1.73-7.29,4.27-10.2,7.65-.66.76-1.5,1.49-2.09,2.32-.63-.14-1.23-.28-1.85-.46-.57-.17-1.04-.26-1.62-.35l7.53-8.92c-3.46,2.56-5.51,6.39-8.46,9.5-2.33.05-.83-.41-2.78-.7,1.13-.99,3.42-2.13,4.17-3.36,2.22-3.63-1.8-4.41-5.56-1.74.57-.78.83-.83,0-1.16,4.76-3.35,10.39-5.51,15.76-7.65,2.17.67,3.55,3.42,5.1,4.87Z"/>
          <path class="cls-11" d="m35.21,58.07c-1.09-.14-1.5.22-1.62.23-.29.04-.63,0-.93,0,2.95-3.11,5-6.94,8.46-9.5l-7.53,8.92c.58.09,1.05.18,1.62.35Z"/>
          <path class="cls-16" d="m49.81,48.8c-1.23.51-2.33,1.18-3.48,1.85-2.42,1.44-2.85,1.81-4.87,3.71-.42.4-.76.74-1.16,1.16-.17.18-.78.53-.93.7h-.23c2.9-3.38,6.05-5.92,10.2-7.65.02.02.11-.09.46.23Z"/>
          <path class="cls-18" d="m45.06,48.1c1.56-.69.1,1.1-.23.93-.31-.17-.06-.8.23-.93Z"/>
        </g>
        <path class="cls-17" d="m49.58,45.79s-.07-.02-.23-.23c-.51-.66-.87-1.47-1.62-1.97.74-.48,8.3-4.82,8.69-4.52.08.06.39,1.74.35,1.97-.3,1.62-5.82,3.67-7.18,4.75Z"/>
        <g>
          <path class="cls-13" d="m66.49,35.82c-1.52,1-1.69,2.46-.12,3.48,3,1.94,8.53-.58,11.7-1.16-.45.61-5.42,2.11-6.49,2.32-3.29.64-3.8.41-7.07-.46-2.32.99-3.19,2.2-3.36,2.32-3.06,2.05-6,4.07-9.27,5.79-.19-.25-1.48-1.28-2.32-2.32,1.36-1.08,6.88-3.13,7.18-4.75.04-.23-.27-1.91-.35-1.97-.39-.3-7.95,4.04-8.69,4.52.76.5,1.11,1.31,1.62,1.97-1.19-.8-1.99-2.06-3.01-3.01,6.71-1.98,12.74-5.85,19.23-8.34.07-.03.16.03.23,0l.7,1.62Z"/>
          <path class="cls-22" d="m58.27,38.6c3.61-.75,2.02,3.02-.46,1.85-1.15-.54-.76-1.6.46-1.85Z"/>
        </g>
        <path class="cls-22" d="m32.43,40.46c.1.21.23.66.46.7-.07.04-.01,1.27-1.04,1.39-2.24.27-2.15-3.29.58-2.09Z"/>
        <path class="cls-14" d="m53.28,49.26c.02.16-.03.38,0,.46.09.22,2.88,3.16,3.24,3.48.29.81-.06.44-.23.93-.97-.35-2.31-2.03-3.01-2.32-.03-.12-.21-.45-.23-.46.77-.11.03-1.26-.46-2.09h.7Z"/>
        <g>
          <path class="cls-18" d="m53.28,51.81c.7.29,2.04,1.97,3.01,2.32-.06.17.25.32.23.35-.52,1-3.57,3.82-5.33,9.85-.74.46.21-2.46.7-3.59.32-.75,1.82-2.84,1.85-3.01.44-2.66-6.44,5.46-4.87,6.37-1.6-.7-2.98,1.59-3.71,2.78-1.13-.12-1.11-1.2-2.09-.23,1.05-1.99,5.61-7.95,3.01-9.5,1.12-1.26,5.6-5.98,7.18-5.33Z"/>
          <path class="cls-11" d="m55.02,53.9c.14-.03.3-.02.35.12-2.17,1.6-4.17,3.36-6.03,5.33.03-1.52,5.29-5.37,5.68-5.45Z"/>
        </g>
        <path class="cls-18" d="m41.47,54.36c2.01-1.9,2.44-2.27,4.87-3.71,1.96.68-1.81,2.19-2.43,2.32-.87.93.6,1.35-2.43,1.39Z"/>
      </g>
    </g>
  </g>
</svg>